<?xml version="1.0" encoding="utf-8"?>
<svg fill="none" width="800px" height="800px" viewBox="0 0 48 48" xmlns="http://www.w3.org/2000/svg" style="enable-background:new 0 0 48 48" xml:space="preserve">
  <!-- Purple rounded square background -->
  <rect x="8" y="8" width="32" height="32" rx="6" ry="6" fill="#904EE2"/>

  <!-- White lightning bolt -->
  <g transform="translate(24, 24) scale(0.6) translate(-24, -24)">
    <path d="M24.788 4.065a2 2 0 0 0-2.25.956l-11.282 20.11a2 2 0 0 0 1.745 2.978h8.282V42a2 2 0 0 0 3.827.813 552.532 552.532 0 0 0 10.037-24.088A2 2 0 0 0 33.282 16h-7V6a2 2 0 0 0-1.494-1.935z" fill="#FFFFFF"/>
  </g>
</svg>
